<?xml version="1.0" encoding="UTF-8"?>
<svg version="1.1" xmlns="http://www.w3.org/2000/svg" width="512" height="512">
<path d="M0 0 C8.74851579 2.29194343 15.23328486 7.84840572 21.64453125 13.98046875 C23.81897731 16.0457376 26.01788388 18.00411903 28.29296875 19.953125 C32.52456835 23.6361747 36.37603212 27.598654 40.1953125 31.703125 C40.88995605 32.44626953 41.58459961 33.18941406 42.30029297 33.95507812 C48.55276659 40.68386216 54.56499749 47.58610197 60.4453125 54.640625 C61.02055664 55.32688965 61.59580078 56.0131543 62.18847656 56.72021484 C64.02924517 58.91861006 65.8634804 61.12227955 67.6953125 63.328125 C68.24977051 63.99263672 68.80422852 64.65714844 69.37548828 65.34179688 C69.91931152 66.00115234 70.46313477 66.66050781 71.0234375 67.33984375 C71.83727654 68.29079422 71.83727654 68.29079422 72.66755676 69.26095581 C74.4453125 71.640625 74.4453125 71.640625 75.68751526 74.40933228 C77.55563537 78.07985827 79.15667405 80.11630937 82.4453125 82.640625 C90.09017433 84.90453676 98.50477406 84.31196392 106.39453125 84.27734375 C108.77336314 84.29747215 111.15217491 84.32012059 113.53096008 84.34516907 C118.51377567 84.38390426 123.49444477 84.38040839 128.47729492 84.34936523 C134.83737385 84.31475159 141.18899448 84.40247169 147.54774761 84.52466106 C152.46158831 84.60229258 157.37342382 84.6051224 162.28775978 84.58698463 C164.63005819 84.58887413 166.97248271 84.61561251 169.31418419 84.66852379 C183.04641027 85.29060811 183.04641027 85.29060811 194.69790649 79.14541626 C197.60127385 75.84628151 199.99853957 72.32772488 202.25502968 68.56319618 C203.94787695 65.82887177 205.92902797 63.46703174 208.0078125 61.015625 C208.71421875 60.15453125 209.420625 59.2934375 210.1484375 58.40625 C218.61549056 48.21122693 227.29666817 38.23115377 236.4453125 28.640625 C237.0321582 28.02509766 237.61900391 27.40957031 238.22363281 26.77539062 C261.47665731 2.55502072 261.47665731 2.55502072 273.703125 0.20703125 C278.75427327 0.19646399 280.86574601 1.19508284 284.4453125 4.640625 C285.93344006 6.98034001 287.1831499 9.16368535 288.3828125 11.640625 C288.72489746 12.3413916 289.06698242 13.0421582 289.41943359 13.76416016 C299.1829823 34.57269484 307.4453125 63.61430839 307.4453125 86.640625 C308.6003125 86.805625 309.7553125 86.970625 310.9453125 87.140625 C331.13355766 91.66228243 348.88137451 106.87066918 359.96142578 123.7578125 C364.06752864 130.3197028 367.27270744 137.19806766 369.4453125 144.640625 C369.82567154 145.88659203 369.82567154 145.88659203 370.2137146 147.1577301 C373.48624495 159.78808756 372.82054964 172.65135591 372.73828125 185.6015625 C372.73267717 188.20471959 372.72841091 190.80787986 372.72541809 193.41104126 C372.71519255 199.5269992 372.6916271 205.64276799 372.66136962 211.75865519 C372.62763639 218.73101251 372.61129245 225.70337839 372.59628332 232.67579722 C372.56507077 246.99749401 372.51242961 261.31905364 372.4453125 275.640625 C373.27023193 275.62612305 374.09515137 275.61162109 374.94506836 275.59667969 C376.02667236 275.58540039 377.10827637 275.57412109 378.22265625 275.5625 C379.29507568 275.54799805 380.36749512 275.53349609 381.47241211 275.51855469 C386.13445564 275.70998293 388.8712641 277.27644972 392.3203125 280.265625 C394.10456986 284.03239054 394.21434975 287.56261094 393.4453125 291.640625 C391.51189701 295.21114709 389.36175351 297.33514466 385.4453125 298.640625 C381.1553125 298.640625 376.8653125 298.640625 372.4453125 298.640625 C372.4453125 307.880625 372.4453125 317.120625 372.4453125 326.640625 C378.8803125 328.125625 378.8803125 328.125625 385.4453125 329.640625 C388.98678555 331.44137401 390.7690306 332.5820968 392.8828125 335.890625 C393.65749885 339.67798047 393.67519654 342.98779574 392.4453125 346.640625 C389.77581738 349.92615746 388.28519083 351.31630746 384.140625 352.046875 C378.12860727 352.27162333 372.98126209 350.8870973 367.4453125 348.640625 C367.17847656 349.50300781 366.91164063 350.36539062 366.63671875 351.25390625 C359.35759868 371.94570001 342.81586622 388.02452869 323.4453125 397.640625 C311.1662693 403.14700844 299.39498841 404.94191165 286.05014038 404.90805054 C284.71647499 404.91179378 283.38281179 404.91639797 282.04915202 404.92178118 C278.4084999 404.93394357 274.76794013 404.93375876 271.12727237 404.93139243 C267.19116746 404.93098254 263.25509149 404.94203987 259.31900024 404.95150757 C251.61602416 404.96808186 243.9130787 404.97361551 236.21008627 404.97473232 C229.94424851 404.97568459 223.67842079 404.97980376 217.41258621 404.98613358 C199.623354 405.00373698 181.83414586 405.01297397 164.04490487 405.01147263 C163.08697591 405.01139272 162.12904695 405.0113128 161.14208984 405.01123047 C160.18298264 405.01114871 159.22387544 405.01106695 158.23570438 405.01098271 C142.70157786 405.01017028 127.16754841 405.02929948 111.63344996 405.0575072 C95.65919392 405.08628381 79.68498514 405.10004484 63.71070254 405.09831965 C54.75203323 405.09765735 45.79346566 405.10307908 36.83481979 405.12467575 C29.20556481 405.14295063 21.57645768 405.14718346 13.94719021 405.1336569 C10.06057361 405.12715863 6.17424014 405.12689508 2.28765106 405.1443634 C-27.63830324 405.27043722 -27.63830324 405.27043722 -40.5546875 400.640625 C-41.65889856 400.2524378 -42.76310963 399.8642506 -43.90078163 399.46430016 C-63.96802329 392.04474188 -80.73981939 375.6427486 -89.6171875 356.390625 C-90.62073489 354.14972015 -91.59448164 351.90065938 -92.5546875 349.640625 C-93.08835937 349.785 -93.62203125 349.929375 -94.171875 350.078125 C-107.50977588 353.40106224 -107.50977588 353.40106224 -113.484375 350.80078125 C-116.5653861 348.61164178 -117.95164074 346.31510273 -118.6171875 342.703125 C-118.82351102 338.6530708 -117.90085749 336.00346865 -115.5546875 332.640625 C-110.5546875 329.640625 -110.5546875 329.640625 -97.5546875 326.640625 C-97.5546875 317.400625 -97.5546875 308.160625 -97.5546875 298.640625 C-101.8446875 298.640625 -106.1346875 298.640625 -110.5546875 298.640625 C-116.98325893 294.78348214 -116.98325893 294.78348214 -118.5546875 291.640625 C-119.25518531 287.08738921 -119.18502122 283.73787259 -116.8671875 279.703125 C-112.62370138 275.91839414 -108.82308444 275.39296792 -103.2421875 275.515625 C-102.17355469 275.53367187 -101.10492188 275.55171875 -100.00390625 275.5703125 C-98.79154297 275.60511719 -98.79154297 275.60511719 -97.5546875 275.640625 C-97.55837467 275.0533088 -97.56206184 274.4659926 -97.56586075 273.86087894 C-97.6546487 259.4928874 -97.72060773 245.12492055 -97.76193619 230.75671482 C-97.78245956 223.80800514 -97.81038121 216.85947988 -97.85644531 209.91088867 C-97.90095497 203.19351128 -97.9238872 196.47636413 -97.93419647 189.75883293 C-97.94153463 187.20784445 -97.95586283 184.6568653 -97.97760773 182.10595894 C-98.21522891 153.0505099 -92.70740306 129.40271966 -72.3046875 107.828125 C-63.27638722 99.19346369 -53.03663809 93.4588912 -41.515625 88.83203125 C-40.53851563 88.43886719 -39.56140625 88.04570312 -38.5546875 87.640625 C-37.86818115 87.42913818 -37.1816748 87.21765137 -36.47436523 86.99975586 C-33.42645526 84.84183715 -33.51382663 82.30018365 -32.87890625 78.703125 C-32.74833328 77.99932205 -32.61776031 77.2955191 -32.48323059 76.57038879 C-32.20253947 75.05362366 -31.92909131 73.53550404 -31.66210938 72.01626587 C-30.95427469 68.01180431 -30.18151164 64.01997669 -29.41015625 60.02734375 C-29.25622406 59.22616623 -29.10229187 58.42498871 -28.94369507 57.59953308 C-20.4487294 13.9096669 -20.4487294 13.9096669 -8.421875 1.8828125 C-5.56238473 -0.01952621 -3.39396534 -0.34514902 0 0 Z " fill="#333332" transform="translate(118.5546875,53.359375)"/>
<path d="M0 0 C11.04915946 9.09571691 19.08754878 21.6655525 21 36 C22.20650906 50.58152383 19.40626085 64.43378296 10 76 C9.48824219 76.68320312 8.97648437 77.36640625 8.44921875 78.0703125 C3.86302805 83.82767839 -1.560304 87.51816961 -8 91 C-8.92039062 91.51046875 -9.84078125 92.0209375 -10.7890625 92.546875 C-22.7846937 98.18070707 -38.87439634 98.37862598 -51.3125 93.9375 C-65.85350362 87.12618778 -77.31485795 76.37358029 -83.06640625 61.18359375 C-83.80260135 58.79718355 -84.45122066 56.435736 -85 54 C-85.27263672 52.80503906 -85.27263672 52.80503906 -85.55078125 51.5859375 C-87.80773686 38.59372349 -84.97892887 25.37713796 -77.75 14.37109375 C-58.83571672 -11.25607132 -26.92495971 -18.17776467 0 0 Z " fill="#FCD400" transform="translate(171,212)"/>
<path d="M0 0 C9.75775669 8.35535596 18.26965062 19.47466539 19.52392578 32.62890625 C19.68419105 35.6392808 19.75244016 38.6339058 19.76953125 41.6484375 C19.775896 42.61031982 19.78226074 43.57220215 19.78881836 44.56323242 C19.54091833 58.52826721 14.09303143 70.24540901 4.45703125 80.3359375 C-0.21878842 84.73670896 -4.94988787 88.16669901 -10.73046875 90.9609375 C-11.56320312 91.3734375 -12.3959375 91.7859375 -13.25390625 92.2109375 C-24.20719409 96.73034566 -39.72029523 97.15893507 -50.98046875 93.3359375 C-53.421875 92.22265625 -53.421875 92.22265625 -55.73046875 90.9609375 C-56.58511719 90.51363281 -57.43976563 90.06632812 -58.3203125 89.60546875 C-71.35750726 82.2928768 -80.01497467 72.20220353 -84.73046875 57.9609375 C-85.34921875 56.135625 -85.34921875 56.135625 -85.98046875 54.2734375 C-89.0332886 40.65951114 -86.48041547 26.55583374 -79.52734375 14.62890625 C-71.63663796 2.91292353 -60.38016092 -6.63216686 -46.54296875 -10.3515625 C-30.06873856 -13.37862953 -13.45942857 -10.05124709 0 0 Z " fill="#FCD500" transform="translate(406.73046875,213.0390625)"/>
<path d="M0 0 C8.84518957 4.79612475 15.17968401 11.51677546 18.3125 21.25390625 C19.67009362 33.17201178 17.89904176 41.54931176 10.77734375 51.37109375 C5.35941178 57.57442618 -2.19614104 60.69371487 -10.2578125 61.69921875 C-17.61000083 61.9374106 -23.41279244 61.15440014 -29.6875 57.25390625 C-30.39648438 56.81820312 -31.10546875 56.3825 -31.8359375 55.93359375 C-39.97254353 50.39828184 -43.77425416 42.77564135 -45.6875 33.25390625 C-46.49338229 26.69645313 -45.10423849 21.33890853 -42.6875 15.25390625 C-39.6875 15.25390625 -39.6875 15.25390625 -37.6875 16.25390625 C-32.85023845 16.65701138 -30.58918293 16.72933907 -26.25 14.44140625 C-23.46422016 12.44443349 -23.46422016 12.44443349 -22.6875 9.25390625 C-22.6189505 7.35919809 -22.60269628 5.46222285 -22.625 3.56640625 C-22.63402344 2.57253906 -22.64304687 1.57867187 -22.65234375 0.5546875 C-22.66394531 -0.20457031 -22.67554688 -0.96382812 -22.6875 -1.74609375 C-15.13093168 -4.26494986 -7.1457796 -3.28660055 0 0 Z " fill="#020200" transform="translate(386.6875,225.74609375)"/>
<path d="M0 0 C7.22768533 6.07684853 12.25551809 13.50394881 13.42578125 23.01953125 C13.75980164 32.30178196 10.75134882 41.24603093 4.8125 48.40234375 C-2.07081232 55.51730601 -9.82816969 58.16979498 -19.625 58.64453125 C-28.70418302 58.42882712 -36.01102189 54.90732637 -42.75 48.89453125 C-50.02483501 40.69251138 -51.36461907 32.42509382 -51.28125 21.87890625 C-50.7610217 17.66505698 -49.65774411 14.87067076 -47.8125 11.08203125 C-47.3175 11.41203125 -46.8225 11.74203125 -46.3125 12.08203125 C-41.72186872 13.91828376 -37.46744135 13.78078427 -33 11.89453125 C-30.4467839 9.77900934 -29.1545063 8.1192034 -27.8125 5.08203125 C-27.52218206 1.5256365 -27.76384722 -1.50984721 -28.8125 -4.91796875 C-18.73170131 -7.51946519 -8.64247139 -5.89368535 0 0 Z " fill="#020200" transform="translate(157.8125,228.91796875)"/>
<path d="M0 0 C1.34302437 -0.00855011 1.34302437 -0.00855011 2.71318054 -0.01727295 C4.61045142 -0.0267289 6.50773876 -0.03325929 8.4050293 -0.03710938 C11.30221405 -0.04680139 14.19868537 -0.07781331 17.09570312 -0.109375 C18.93879787 -0.11590643 20.78189769 -0.12115635 22.625 -0.125 C23.48974442 -0.1373468 24.35448883 -0.1496936 25.24543762 -0.16241455 C29.98602981 -0.14493706 33.19041358 0.07797568 37.01171875 3.203125 C39.37047692 6.74126225 39.62965331 8.66383853 39.49609375 12.82421875 C38.55534329 17.44451739 35.31141518 20.03115876 32.01171875 23.203125 C30.88943729 24.33086104 29.76985597 25.46128778 28.65234375 26.59375 C25.46093446 29.81969172 22.24221648 33.01634829 19.01171875 36.203125 C21.93024249 39.78873989 24.92688892 43.15748205 28.26953125 46.3515625 C28.8519458 46.91270752 29.43436035 47.47385254 30.03442383 48.05200195 C31.21393996 49.18131906 32.40374366 50.30000245 33.60424805 51.40698242 C37.13721773 54.80416757 38.90807419 57.05791302 39.01171875 62.203125 C38.07421875 64.078125 38.07421875 64.078125 36.01171875 65.203125 C28.48847791 65.98139129 21.4439696 64.40821509 15.44921875 59.640625 C14.64484375 58.83625 13.84046875 58.031875 13.01171875 57.203125 C13.01171875 56.543125 13.01171875 55.883125 13.01171875 55.203125 C12.35171875 55.203125 11.69171875 55.203125 11.01171875 55.203125 C10.76164062 55.80769531 10.5115625 56.41226563 10.25390625 57.03515625 C8.82386104 59.53098987 7.58652182 60.42536543 5.13671875 61.890625 C4.45867187 62.30699219 3.780625 62.72335937 3.08203125 63.15234375 C-0.42402464 64.93183249 -3.64466513 65.373813 -7.55078125 65.453125 C-8.31519531 65.47890625 -9.07960937 65.5046875 -9.8671875 65.53125 C-11.98828125 65.203125 -11.98828125 65.203125 -13.765625 64 C-15.45755294 61.51346053 -15.37467795 60.17592582 -14.98828125 57.203125 C-13.15234375 54.79956055 -13.15234375 54.79956055 -10.61328125 52.33984375 C-9.7109375 51.45361328 -8.80859375 50.56738281 -7.87890625 49.65429688 C-6.925 48.74228516 -5.97109375 47.83027344 -4.98828125 46.890625 C-4.02360323 45.95103508 -3.0600474 45.01029153 -2.09765625 44.06835938 C0.26133008 41.76834771 2.63117662 39.48078466 5.01171875 37.203125 C0.97206079 32.33990992 -3.28059926 27.80772417 -7.80078125 23.390625 C-15.13051928 16.22251294 -15.13051928 16.22251294 -15.30078125 10.890625 C-15.27241639 7.36770901 -15.054788 6.30953581 -13.11328125 3.203125 C-9.11407902 -0.56083004 -5.23072768 0.0255277 0 0 Z " fill="#010000" transform="translate(243.98828125,265.796875)"/>
<path d="M0 0 C14.61833826 3.06233964 26.67084264 14.95097707 37.3125 24.75 C37.9936084 25.37084473 38.6747168 25.99168945 39.37646484 26.63134766 C41.44484343 28.5182811 43.50583427 30.4128107 45.5625 32.3125 C46.19486572 32.89612305 46.82723145 33.47974609 47.47875977 34.08105469 C48.06842529 34.6330957 48.65809082 35.18513672 49.265625 35.75390625 C49.78286133 36.23674072 50.30009766 36.7195752 50.83300781 37.21704102 C52.3125 38.75 52.3125 38.75 55.3125 42.75 C27.9225 42.75 0.5325 42.75 -27.6875 42.75 C-26.72400202 36.96901215 -25.17523808 32.37220167 -23 27 C-22.46088989 25.66473267 -22.46088989 25.66473267 -21.91088867 24.30249023 C-11.24467312 -1.58424185 -11.24467312 -1.58424185 0 0 Z " fill="#4A4A4A" transform="translate(129.6875,95.25)"/>
<path d="M0 0 C10.06857508 9.36429651 14.83892589 25.50091584 19.0625 38.1875 C19.0625 38.8475 19.0625 39.5075 19.0625 40.1875 C-8.3275 40.1875 -35.7175 40.1875 -63.9375 40.1875 C-55.30655048 30.11805889 -46.39504224 21.32436712 -35.9375 13.1875 C-34.46603516 12.02541016 -34.46603516 12.02541016 -32.96484375 10.83984375 C-10.53207588 -6.4985149 -10.53207588 -6.4985149 0 0 Z " fill="#4A4A4A" transform="translate(389.9375,97.8125)"/>
<path d="M0 0 C1.75643218 0.46123555 3.51294373 0.92216892 5.26953125 1.3828125 C6.13658691 1.61387695 7.00364258 1.84494141 7.89697266 2.08300781 C10.96977304 2.88974341 14.05481574 3.63705737 17.14355469 4.37988281 C32.55927342 8.11412524 32.55927342 8.11412524 36.375 11.4375 C37.93169229 14.82559499 38.5639089 18.01721952 38.4375 21.75 C36.83840582 25.53732831 34.84103651 27.52652177 31.4375 29.75 C24.24922144 31.64629434 16.86904997 28.51611141 10.12207031 26.23876953 C3.21165606 23.91685955 -3.7522001 22.15166858 -10.88818359 20.66333008 C-16.37473904 19.41403342 -19.55165771 17.73565647 -23.5625 13.75 C-25.16336627 10.54826746 -25.06167089 7.22422941 -24.5625 3.75 C-18.67568689 -5.47267388 -9.19259024 -2.51152752 0 0 Z " fill="#000000" transform="translate(473.5625,375.25)"/>
<path d="M0 0 C2.93423195 1.79646854 4.47205355 2.9441071 6 6 C6.47035405 10.70354049 6.50381322 13.02969306 4.3125 17.25 C0.03966779 21.64119321 -6.26182456 22.54978179 -12 24 C-14.42059278 24.63350254 -16.83993191 25.27166394 -19.25927734 25.90991211 C-20.87525167 26.33330942 -22.4927011 26.75113103 -24.11181641 27.16235352 C-28.05554104 28.17225045 -31.90745076 29.28433987 -35.75390625 30.62109375 C-41.10533851 32.4389022 -46.56203803 33.50323843 -51.9296875 31.15625 C-55.01380549 28.97228128 -56.39723082 26.6729713 -57.0625 23.0625 C-57.26882352 19.0124458 -56.34616999 16.36284365 -54 13 C-48.18949243 8.09738424 -39.01937643 7.17225579 -31.73828125 5.6015625 C-27.83897395 4.74493864 -23.95062057 3.8433795 -20.0625 2.9375 C-19.30372559 2.7629126 -18.54495117 2.5883252 -17.76318359 2.40844727 C-4.95678073 -0.58452603 -4.95678073 -0.58452603 0 0 Z " fill="#000000" transform="translate(57,373)"/>
<path d="M0 0 C1.06452393 -0.01144043 2.12904785 -0.02288086 3.22583008 -0.03466797 C4.13018799 -0.04522217 5.0345459 -0.05577637 5.96630859 -0.06665039 C10.29601878 0.19007703 12.9740005 1.93510057 16.15942383 4.69580078 C17.94368119 8.46256632 18.05346108 11.99278672 17.28442383 16.07080078 C15.35100834 19.64132287 13.20086484 21.76532045 9.28442383 23.07080078 C7.70515932 23.15476506 6.12248401 23.18104621 4.54101562 23.171875 C3.57959152 23.16791718 2.61816742 23.16395935 1.62760925 23.15988159 C-2.76420025 23.11183755 -7.15581644 23.06215836 -11.54736328 22.99365234 C-13.86234538 22.96182682 -16.17749847 22.940617 -18.49267578 22.93017578 C-21.83465131 22.91492541 -25.1748188 22.8675157 -28.51635742 22.81298828 C-30.06351189 22.81418167 -30.06351189 22.81418167 -31.641922 22.81539917 C-39.66905413 22.62630605 -39.66905413 22.62630605 -43.35424805 19.66479492 C-46.3446705 16.37972063 -46.79852123 14.59043853 -47.02807617 10.29345703 C-46.48029116 6.39733612 -44.554566 4.71172155 -41.71557617 2.07080078 C-38.65655356 0.54128947 -35.42836368 0.83035843 -32.06713867 0.75439453 C-31.29937103 0.73361343 -30.53160339 0.71283234 -29.74057007 0.69142151 C-28.10810959 0.64811412 -26.47558754 0.60707757 -24.84301758 0.56811523 C-22.38502241 0.50936315 -19.92727519 0.44407578 -17.46948242 0.37744141 C-11.64679093 0.22379121 -5.82362989 0.11097002 0 0 Z " fill="#000000" transform="translate(494.715576171875,328.92919921875)"/>
<path d="M0 0 C1.02428101 0.01791092 2.04856201 0.03582184 3.10388184 0.05427551 C5.26581411 0.095399 7.42764878 0.14196578 9.58935547 0.19360352 C12.89413889 0.26925401 16.19860576 0.31825474 19.50390625 0.36523438 C21.60680476 0.40853912 23.70967175 0.45340855 25.8125 0.5 C27.29236389 0.51899605 27.29236389 0.51899605 28.80212402 0.53837585 C34.9890469 0.71405033 38.52320363 1.58339106 43.28125 5.70703125 C44.7871213 8.88609288 44.55082488 11.3094529 44.31640625 14.765625 C42.92990211 18.29436729 40.66602413 20.30504716 37.40625 22.08203125 C33.70128216 22.84956138 30.0522811 22.87435781 26.27734375 22.89453125 C24.67645653 22.92788574 24.67645653 22.92788574 23.04322815 22.96191406 C20.793408 23.00337915 18.54334025 23.03291429 16.29321289 23.05126953 C12.85116442 23.08196513 9.41194294 23.15523214 5.97070312 23.234375 C3.78128902 23.2694532 1.59183411 23.30208823 -0.59765625 23.33203125 C-2.1384359 23.36453979 -2.1384359 23.36453979 -3.71034241 23.39770508 C-10.04373927 23.42477669 -13.59088744 22.77425285 -18.40625 18.45703125 C-20.27252314 14.72448498 -20.25014368 11.1662586 -19.59375 7.08203125 C-15.05614281 -0.81676646 -8.15066451 -0.18824138 0 0 Z " fill="#000000" transform="translate(19.59375,328.91796875)"/>
<path d="M0 0 C4.34426379 2.25567543 7.05791513 4.46846864 9 9 C9.58496307 12.92760919 9.18285914 14.65459941 7.3125 18.1875 C3.79307746 22.46787877 1.59515954 23.79744006 -3.9375 24.5 C-8.68038928 24.32932785 -10.78603384 22.370745 -14 19 C-15.35225582 14.94323255 -15.67765177 11.23718526 -15 7 C-10.68826317 1.5229289 -6.98987248 -0.71083449 0 0 Z " fill="#FBFBF7" transform="translate(122,219)"/>
<path d="M0 0 C2.70552388 2.19823815 4.44778333 3.89556667 6 7 C6.34717992 12.29449372 6.52421718 15.74663444 3 20 C-0.43221347 22.84383402 -3.52892109 23.59106158 -8.00390625 23.421875 C-12.28603701 22.51684541 -14.89092789 19.56278342 -17.375 16.0625 C-18.70972626 11.65790333 -18.4740789 8.89548236 -16.3125 4.8125 C-11.53660156 -0.99602513 -7.15781966 -2.16549979 0 0 Z " fill="#FDFCF8" transform="translate(359,220)"/>
<path d="M0 0 C0.66 0 1.32 0 2 0 C3.66666667 1.66666667 5.33333333 3.33333333 7 5 C8.63377642 6.05287814 10.29181597 7.0727001 12 8 C11.81037036 12.07703716 11.21550125 13.75217356 8.5 16.875 C5.20793707 19.29656552 2.23831342 19.84412188 -1.80859375 19.625 C-5.21907825 18.6523128 -6.85608495 16.64594103 -9.00390625 13.921875 C-10 12 -10 12 -10 8 C-8.06640625 6.3671875 -8.06640625 6.3671875 -5.5625 4.875 C-2.17819215 3.00471686 -2.17819215 3.00471686 0 0 Z " fill="#F80158" transform="translate(255,321)"/>
</svg>
